# xmcd
# 
# Track frame offsets:
#     150
#     20152
#     40215
#     58501
#     78017
#     98160
#     115793
#     136876
#     153690
#     172093
#     194646
#     212587
#     235398
#     253570
# 
# Disc length: 3688
# 
# Revision: 0
# Processed by: cddbd v1.5.2PL0 Copyright (c) Steve Scherf et al.
# Submitted via: BonkEnc v1.0
# 
DISCID=c00e660e
DTITLE=The Corrs - Talk On Corners
DYEAR=0
DGENRE=
TTITLE0=Only When I Sleep
TTITLE1=When He's Not Around
TTITLE2=Dreams
TTITLE3=What Can I Do
TTITLE4=I Never Loved You Anyway
TTITLE5=So Young
TTITLE6=Don't Say You Love Me
TTITLE7=Love Gives Love Takes
TTITLE8=Hopelessly Addicted
TTITLE9=Paddy McCarthy
TTITLE10=Intimacy
TTITLE11=Queen Of Hollywood
TTITLE12=No Good For Me
TTITLE13=Little Wing
EXTD=Brought to you by:\n\nJustin M. Evans\nEvans WebDesigns\nevanswebdesigns@biogate.com\nAIM: evanswebs
EXTT0=
EXTT1=
EXTT2=
EXTT3=
EXTT4=
EXTT5=
EXTT6=
EXTT7=
EXTT8=
EXTT9=
EXTT10=
EXTT11=
EXTT12=
EXTT13=
PLAYORDER=
